<?xml version="1.0" encoding="UTF-8" standalone="no"?>
<!-- Created with Inkscape (http://www.inkscape.org/) -->

<svg
   version="1.1"
   id="svg2"
   xml:space="preserve"
   width="416"
   height="422.66666"
   viewBox="0 0 416 422.66666"
   sodipodi:docname="MPIBCWhite.svg"
   inkscape:version="1.1.1 (1:1.1+202109281949+c3084ef5ed)"
   xmlns:inkscape="http://www.inkscape.org/namespaces/inkscape"
   xmlns:sodipodi="http://sodipodi.sourceforge.net/DTD/sodipodi-0.dtd"
   xmlns="http://www.w3.org/2000/svg"
   xmlns:svg="http://www.w3.org/2000/svg"><defs
     id="defs6" /><sodipodi:namedview
     id="namedview4"
     pagecolor="#ffffff"
     bordercolor="#666666"
     borderopacity="1.0"
     inkscape:pageshadow="2"
     inkscape:pageopacity="0.0"
     inkscape:pagecheckerboard="0"
     showgrid="false"
     inkscape:zoom="1.7626183"
     inkscape:cx="208.21297"
     inkscape:cy="211.33333"
     inkscape:window-width="1848"
     inkscape:window-height="1016"
     inkscape:window-x="72"
     inkscape:window-y="27"
     inkscape:window-maximized="1"
     inkscape:current-layer="g8" /><g
     id="g8"
     inkscape:groupmode="layer"
     inkscape:label="ink_ext_XXXXXX"
     transform="matrix(1.3333333,0,0,-1.3333333,0,422.66667)"><g
       id="g10"
       transform="scale(0.1)"><path
         d="m 1187.27,2941.05 71.95,25.47 V 2339.3 h 172.62 v 36.95 h 177.22 v 104.02 h 71.96 v -104.14 h 34.53 v 104.14 h 71.91 v -104.14 h 34.53 v 104.14 h 71.92 v -104.14 h 32.38 v -36.83 h 676.99 l 27.77,-73.52 h -704.92 v -101.83 h 736.99 l 15.86,-71.96 h -752.69 v -106.72 h 768.2 l 3.48,-71.95 h -771.68 v -34.65 h -32.38 V 661.879 l -70.47,-22.149 -0.74,1238.94 h -34.54 l -2.85,-1245.701 -70.35,-10.508 V 1879.65 h -30.35 l -4.34,-1260.201 h -69.06 l -1.99,1260.201 h -177.23 v 34.69 h -280.97 v -813.13 h -69.5 v 884.06 h 350.47 v 106.88 H 844.449 l 30.199,73.08 557.772,-1.6 v 101.99 h -244.57 l -1.01,304.58 z"
         style="fill:#ffffff;fill-opacity:1;fill-rule:evenodd;stroke:none"
         id="path12" /><path
         d="m 1151.29,1101.21 h 52.23 c 7.77,0 22.46,-91.91 14.41,-156.948 -8.87,-64.262 -31.64,-125.821 -66.76,-180.391"
         style="fill:#ffffff;fill-opacity:1;fill-rule:evenodd;stroke:none"
         id="path14" /><path
         d="M 1082.11,1101.37 V 706.48 c 0,0 -36.25,15.079 -48.32,20.711 -12.11,5.618 -39.142,18.399 -51.802,24.879 -12.648,6.481 -36.25,18.711 -54.687,29.489 -18.391,10.781 -44.879,26.921 -67.461,41.453 -25.192,16.09 -58.551,40.859 -58.551,40.859 0,0 -86.328,67.731 -132.769,113.039 -50.2,48.83 -96.219,101.76 -137.54,158.29 0,0 -41.019,56.25 -73.519,111.64 h 417.187 c 2.582,-26.96 15.661,-51.76 36.403,-69.07 29.418,-28.71 65.429,-49.8 104.889,-61.44 21.64,-6.64 43.79,-11.64 66.17,-14.96 z"
         style="fill:#ffffff;fill-opacity:1;fill-rule:evenodd;stroke:none"
         id="path16" /><path
         d="M 1081.52,1313.71 H 881.988 c -9.058,0 -10.187,-67.46 -7.769,-67.46 h 207.301"
         style="fill:#ffffff;fill-opacity:1;fill-rule:evenodd;stroke:none"
         id="path18" /><path
         d="m 880.859,1313.98 v 28.79 c 3.09,14.11 -1.519,28.75 -12.109,38.56 -10.699,7.58 -20.352,16.52 -28.75,26.6 -4.801,7.77 -7.031,16.84 -6.328,25.9 0,2.3 2.848,10.35 19.258,18.44 -8.481,0.15 -15.782,6.09 -17.7,14.37 -3.671,9.1 -4.96,19.02 -3.75,28.75 2.192,8.83 5.79,17.23 10.668,24.92 6.481,13.13 10.782,27.19 12.813,41.72 1.449,16.37 3.75,33.79 -15.699,43.13 -19.422,9.37 -35.672,9.06 -67.742,21.87 -32.11,12.81 -36.25,13.24 -49.059,26.06 -9.371,10.86 -14.02,24.96 -12.973,39.25 2.852,16.33 6.602,32.46 11.25,48.36 H 291.879 c 0,0 6.75,-49.49 7.922,-56.83 1.14,-7.35 9.5,-52.07 11.371,-60.55 1.879,-8.52 14.379,-61.02 16.527,-68.36 2.141,-7.34 10.231,-35.66 12.813,-43.16 2.578,-7.46 16.519,-50.04 20.578,-60.71 4.031,-10.62 16.961,-44.02 21.57,-54.96 4.61,-10.93 16.09,-36.95 21.559,-48.63 5.472,-11.64 16.722,-34.06 16.722,-34.06"
         style="fill:#ffffff;fill-opacity:1;fill-rule:evenodd;stroke:none"
         id="path20" /><path
         d="M 752.809,1810.2 H 285.551 c 0,0 -2.153,33.2 -2.153,47.03 0,13.79 0,22.15 0,37.38 0,15.27 0.704,46.76 1.723,63.32 1.008,16.52 1.129,24.61 3.16,45.47 2.028,20.86 2.149,23.16 3.598,35.82 1.441,12.66 3.32,28.75 5.891,44.3 2.582,15.54 3.011,20.58 6.332,37.85 3.32,17.22 4.609,26.01 9.808,48.59 5.149,22.62 6.442,27.62 12.649,52.07 2.703,12.03 6.062,23.91 10.043,35.55 7.777,25.04 6.796,23.9 15.546,48.63 8.793,24.73 6.051,18.13 14.411,38.99 8.32,20.85 12.5,32.65 21.722,53.35 9.18,20.75 26.879,57.54 30.778,65.9 3.871,8.36 17.972,34.96 26.601,50.2 8.641,15.27 16.68,28.79 26.059,44.33 9.332,15.51 15.82,25.75 26.172,40.86 10.347,15.08 25.738,37.54 36.839,52.35 11.051,14.84 26.872,35.39 40.11,51.21 13.25,15.82 26.762,31.8 39.301,45.47 12.5,13.67 25.589,28.79 45.589,47.77 20,18.98 26.051,25.47 38.86,37.11 12.781,11.64 33.949,30.08 33.949,30.08 v -771.84 h 112.34 c -4.367,-12.42 -7.809,-25.15 -10.231,-38.12 0,-10.08 4.18,-21.41 3.204,-38.56 -1.012,-17.11 -4.332,-25.04 -18.442,-58.24 -14.101,-33.24 -33.359,-73.95 -42.14,-94.26 -8.79,-20.27 -24.461,-52.61 -24.461,-52.61 z"
         style="fill:#ffffff;fill-opacity:1;fill-rule:evenodd;stroke:none"
         id="path22" /><path
         d="m 752.809,1810.2 -32.219,-69.38 h 361.25 v 71.37"
         style="fill:#ffffff;fill-opacity:1;fill-rule:evenodd;stroke:none"
         id="path24" /><path
         d="m 803.32,2920.35 v -755 h 71.91 c 4.258,7.42 7.661,15.27 10.079,23.48 0,4.88 4.73,5.47 -5.188,17.54 -9.922,12.07 -17.973,24.88 -14.383,36.09 3.602,11.25 12.231,31.25 12.231,31.25 l 28.793,57.54 c 0,0 18.547,31.05 27.187,43.16 8.629,12.07 22.422,32.07 36.09,48.05 13.672,15.94 24.449,27.74 32.811,35.94 10.16,10.43 20.86,20.27 32.07,29.49 13.67,11.09 26.49,21.17 35.82,27.34 9.34,6.18 15.24,9.81 26.6,18.29 2.46,1.71 4.18,2.3 4.5,3.59 0.27,1.29 -1.33,2.89 -2.19,4.73 -0.86,1.87 -13.52,20.58 -13.52,20.58 l 57.54,41.02 48.36,30.62 v 77.7 l -31.8,-17.85 c 1.88,1.87 -63.43,67.93 -63.43,67.93 l -88.36,95.78 c 0,0 15.97,10.35 26.33,15.82 10.35,5.47 24.61,12.65 34.96,17.58 l 32.11,14.37 c 8.04,3.75 28.75,13.09 40.7,17.54 11.91,4.45 39.26,14.41 44.45,17.69 v 172.66 c 0,0 -26.64,-8.2 -40.58,-13.08 -13.95,-4.93 -43.17,-15.55 -54.53,-20 -11.37,-4.5 -39.97,-16.57 -46.45,-19.46 -6.48,-2.85 -28.05,-12.65 -40.43,-18.67 -12.379,-6.05 -34.379,-17.27 -40.699,-20.59 -6.332,-3.32 -45.75,-25.31 -51.531,-28.78 -5.739,-3.44 -39.25,-24.03 -50.04,-31.06 l -26.91,-17.54 z"
         style="fill:#ffffff;fill-opacity:1;fill-rule:evenodd;stroke:none"
         id="path26" /><path
         d="m 1259.34,2966.52 c 0,0 75.97,20.43 111.91,25.63 35.98,5.15 49.92,7.77 87.62,11.37 37.69,3.59 97.85,7.34 123.75,7.03 25.9,-0.28 56.68,0 83.71,-3.44 27.03,-3.48 57.54,-7.19 79.69,-10.51 22.14,-3.32 60.58,-10.94 84.45,-17.11 23.87,-6.21 93.94,-23.32 127.46,-36.83 33.52,-13.52 82.15,-34.38 99.14,-42.04 28.79,-13.47 56.91,-28.43 84.14,-44.88 23.59,-14.37 72.93,-47.3 85.31,-56.25 12.39,-8.9 56.53,-42.15 69.77,-53.51 13.24,-11.37 67.34,-63.01 80,-76.53 12.66,-13.51 62.42,-69.76 76.25,-87.3 13.79,-17.58 45.74,-60.27 54.53,-73.24 8.75,-12.93 25.31,-37.54 37.38,-57.54 12.07,-20 28.79,-51.37 35.12,-65.9 6.33,-14.53 22.31,-45.9 22.31,-45.9 h 155.35 c 0,0 -32.39,79.57 -44.18,103.59 -22.85,46.8 -48.21,92.31 -75.94,136.37 -30.94,47.89 -64.88,93.79 -101.56,137.38 -36.14,40.86 -53.25,60.32 -77,83.17 -23.71,22.89 -67.03,63.01 -94.06,84.3 -45.11,36.75 -92.65,70.39 -142.26,100.7 -39.22,24.72 -80.12,46.6 -122.46,65.47 -32.78,14.37 -51.06,23 -75.79,32.38 -35.23,14.14 -71.21,26.33 -107.77,36.52 -47.77,12.82 -81.41,21.45 -112.07,27.03 -30.62,5.63 -57.54,10.4 -85,13.56 -47.07,5.82 -94.45,9.06 -141.87,9.61 -37.58,0.78 -75.16,-0.35 -112.62,-3.44 -35.27,-3.16 -57.54,-4.76 -89.77,-9.76 -32.22,-5.04 -40.31,-6.06 -63.75,-10.94 -23.43,-4.92 -51.91,-11.37 -51.91,-11.37"
         style="fill:#ffffff;fill-opacity:1;fill-rule:evenodd;stroke:none"
         id="path28" /><path
         d="m 1253.01,2739.53 c 63.28,24.61 129.65,40.35 197.22,46.76 100.71,7.19 210.36,17.11 329.73,-15.98 0,0 134.38,-34.26 205.31,-72.93 47.62,-24.61 92.85,-53.51 135.24,-86.33 41.76,-29.49 80.31,-63.24 115.08,-100.7 28,-28.83 53.98,-59.57 77.81,-91.91 22.03,-30.94 51.95,-79.14 51.95,-79.14 h -83.01 c 0,0 -63.86,94.37 -121.29,146.6 -57.38,52.22 -61.71,57.54 -112.34,91.76 -60.23,40.62 -124.8,74.37 -192.5,100.7 -49.18,16.21 -99.53,28.71 -150.62,37.42 -52.04,7.77 -104.65,10.98 -157.23,9.49 -48.75,-2.57 -97.27,-8.2 -145.31,-16.83 -68.05,-12.39 -146.02,-45.47 -150.63,-45.47 z"
         style="fill:#ffffff;fill-opacity:1;fill-rule:evenodd;stroke:none"
         id="path30" /><path
         d="m 2321.17,2271.68 c 51.13,-90 82.11,-190.04 90.78,-293.2 14.38,-172.62 -4.45,-268.44 -22.3,-321.96 -17.81,-53.51 -44.03,-149.45 -98.09,-225.27 -51.25,-74.14 -111.29,-141.76 -178.83,-201.41 -75.82,-67.34 -86.32,-74.64 -86.32,-74.64 0,0 -11.64,-62.15 6.75,-80.43 l 120.86,-121.571 c 28.01,42.461 52.39,87.231 72.93,133.791 19.85,47.89 27.62,78.4 2.31,150.74 l 46.33,56.72 c 37.73,44.73 71.17,92.89 99.96,143.83 32.65,64.18 73.51,141.72 90.23,235.94 16.68,94.22 23.13,100.7 23.13,193.79 1.44,64.29 -4.77,128.51 -18.56,191.33 -11.64,57.54 -53.51,213.63 -71.05,213.63 -13.52,0 -78.13,-1.29 -78.13,-1.29 z"
         style="fill:#ffffff;fill-opacity:1;fill-rule:evenodd;stroke:none"
         id="path32" /><path
         d="m 2631.21,2265.62 h 151.33 c 0,0 26.64,-95.78 26.64,-101.83 h -148.05"
         style="fill:#ffffff;fill-opacity:1;fill-rule:evenodd;stroke:none"
         id="path34" /><path
         d="m 2677.23,2092.15 h 144.61 c 0,0 12.22,-88.63 12.22,-106.33 h -141.44"
         style="fill:#ffffff;fill-opacity:1;fill-rule:evenodd;stroke:none"
         id="path36" /><path
         d="m 2696.8,1914.34 h 141.13 c 0,0 1.29,-56.53 -1.99,-100.71 -1.64,-38.59 -5.71,-77.03 -12.11,-115.08 -9.22,-52.96 -17.27,-95.23 -25.59,-125.89 -8.36,-30.63 -14.41,-53.95 -24.92,-84.46 -10.47,-30.47 -14.37,-44.02 -30.9,-83.12 -16.56,-39.14 -36.13,-78.87 -47.77,-102.58 -27.31,-50.66 -57.27,-99.84 -89.77,-147.3 -23,-35.08 -48.86,-68.13 -77.38,-98.87 0,0 -28.79,-35.08 -61.29,-66.17 -32.54,-31.058 -43.16,-43.172 -71.95,-67.191 -28.75,-24.02 -55.82,-45.86 -74.06,-59.258 -18.29,-13.359 -30.67,-21.992 -30.67,-21.992 0,0 -90.9,73.363 -103.01,85.429 39.22,27.891 76.76,58.012 112.5,90.192 35.39,31.25 69.03,64.46 100.71,99.42 38.75,41.76 74.33,86.33 106.44,133.36 22.54,33.36 43.09,68.04 61.45,103.86 19.45,36.37 36.99,73.75 52.5,111.92 20.5,48.75 36.56,99.3 47.93,150.94 10.93,53.94 17.54,90.46 20.43,117.96 2.85,27.47 8.04,96.96 8.04,96.96 z"
         style="fill:#ffffff;fill-opacity:1;fill-rule:evenodd;stroke:none"
         id="path38" /><path
         d="M 1.80078,394.18 H 46.6016 L 89.3008,272.809 131.762,394.18 h 45 V 226.879 h -34.383 v 45.742 l 3.441,78.981 -44.879,-124.723 H 77.4219 l -44.8008,124.57 3.4687,-78.828 V 226.879 H 1.80078 Z M 336.641,226.879 325.078,261.211 H 265.039 L 253.59,226.879 h -36.442 l 61.911,167.301 h 31.761 l 62.231,-167.301 z m -41.719,125.031 -20.66,-62.961 h 41.558 z m 145.43,42.27 31.168,-57.66 31.21,57.66 h 39.379 l -48.398,-82.969 49.687,-84.332 H 503.48 l -31.96,58.59 -31.95,-58.59 h -39.84 l 49.649,84.332 -48.438,82.969 z M 730.039,285.43 H 700 V 226.879 H 665.699 V 394.18 h 64.891 c 12.5,0 23.469,-2.301 32.961,-6.91 9.461,-4.61 16.758,-11.18 21.879,-19.649 5.082,-8.48 7.66,-18.172 7.66,-28.992 0,-16.481 -5.59,-29.449 -16.762,-38.938 C 765.16,290.199 749.73,285.43 730.039,285.43 Z M 700,366.449 v -53.211 h 30.59 c 9.058,0 15.969,2.153 20.738,6.532 4.723,4.332 7.113,10.539 7.113,18.628 0,8.282 -2.39,15 -7.191,20.122 -4.801,5.152 -11.41,7.769 -19.879,7.929 z M 875.43,394.18 V 254.41 h 72.73 V 226.879 H 841.129 V 394.18 Z m 222.27,-167.301 -11.57,34.332 h -60.04 l -11.4,-34.332 h -36.452 l 61.922,167.301 h 31.72 l 62.26,-167.301 z m -41.72,125.031 -20.63,-62.961 h 41.56 z m 252.34,42.27 V 226.879 h -34.26 l -66.68,110.109 V 226.879 h -34.29 V 394.18 h 34.29 l 66.8,-110.309 V 394.18 Z m 149.96,-112.301 h 34.3 c -1.29,-17.93 -7.89,-32.039 -19.81,-42.309 -11.95,-10.269 -27.65,-15.39 -47.11,-15.39 -21.32,0 -38.12,7.109 -50.35,21.41 -12.19,14.289 -18.32,33.898 -18.32,58.82 v 10.121 c 0,15.899 2.81,29.918 8.48,42.028 5.62,12.113 13.67,21.41 24.14,27.89 10.47,6.492 22.62,9.731 36.48,9.731 19.18,0 34.65,-5.121 46.37,-15.43 11.72,-10.27 18.52,-24.73 20.31,-43.281 h -34.22 c -0.85,10.742 -3.82,18.511 -8.98,23.363 -5.16,4.797 -12.97,7.219 -23.48,7.219 -11.44,0 -19.96,-4.063 -25.62,-12.141 -5.67,-8.129 -8.59,-20.75 -8.75,-37.82 v -12.461 c 0,-17.848 2.73,-30.899 8.16,-39.141 5.47,-8.238 14.07,-12.379 25.78,-12.379 10.55,0 18.44,2.422 23.68,7.27 5.19,4.84 8.2,12.34 8.94,22.5 z m 173.95,-55 -42.7,67.101 -17.81,-19.289 v -47.812 h -34.26 V 394.18 h 34.26 v -75.821 l 15.08,20.782 42.38,55.039 h 42.11 l -59.02,-74.34 60.74,-92.961 z m 195.35,0 h -34.2578 V 394.18 H 1827.58 Z M 2018.12,394.18 V 226.879 h -34.25 l -66.68,110.109 V 226.879 h -34.3 V 394.18 h 34.3 l 66.79,-110.309 V 394.18 Z m 139.93,-124.219 c 0,6.41 -2.27,11.328 -6.84,14.769 -4.57,3.43 -12.81,7.071 -24.69,10.86 -11.87,3.82 -21.29,7.609 -28.2,11.32 -18.87,10.121 -28.32,23.789 -28.32,41.02 0,8.949 2.54,16.91 7.58,23.91 5.08,7.031 12.34,12.5 21.83,16.441 9.46,3.949 20.12,5.899 31.92,5.899 11.87,0 22.46,-2.149 31.76,-6.45 9.25,-4.25 16.48,-10.308 21.6,-18.121 5.15,-7.769 7.73,-16.64 7.73,-26.558 h -34.26 c 0,7.539 -2.38,13.398 -7.18,17.57 -4.81,4.149 -11.57,6.258 -20.2,6.258 -8.4,0 -14.88,-1.758 -19.57,-5.277 -4.65,-3.481 -6.95,-8.082 -6.95,-13.793 0,-5.348 2.73,-9.84 8.16,-13.43 5.47,-3.641 13.48,-7.039 24.03,-10.199 19.49,-5.86 33.71,-13.09 42.61,-21.719 8.91,-8.672 13.36,-19.449 13.36,-32.34 0,-14.34 -5.43,-25.59 -16.33,-33.711 -10.86,-8.172 -25.54,-12.23 -43.98,-12.23 -12.77,0 -24.41,2.3 -34.92,6.992 -10.51,4.648 -18.52,11.019 -24.03,19.137 -5.54,8.132 -8.32,17.5 -8.32,28.171 h 34.38 c 0,-18.171 10.98,-27.23 32.89,-27.23 8.16,0 14.53,1.641 19.1,4.922 4.57,3.277 6.84,7.848 6.84,13.789 z M 2364.3,394.18 v -27.731 h -50.9 v -139.57 h -34.26 v 139.57 h -50.27 v 27.731 z m 78.63,-167.301 h -34.2578 V 394.18 H 2442.93 Z M 2620.7,394.18 v -27.731 h -50.9 v -139.57 h -34.29 v 139.57 h -50.28 v 27.731 z m 133.64,0 h 34.41 V 283.711 c 0,-18.32 -5.7,-32.852 -17.07,-43.512 -11.41,-10.711 -26.95,-16.019 -46.68,-16.019 -19.41,0 -34.84,5.16 -46.25,15.55 -11.45,10.352 -17.27,24.61 -17.5,42.731 V 394.18 h 34.3 V 283.32 c 0,-11.019 2.61,-19.058 7.81,-24.058 5.23,-5.043 12.42,-7.543 21.64,-7.543 19.26,0 29.06,10.191 29.34,30.66 z m 211.79,0 v -27.731 h -50.9 v -139.57 h -34.25 v 139.57 h -50.28 v 27.731 z m 142.27,-67.461 v -26.797 h -65.78 V 254.41 h 77.15 V 226.879 H 3008.32 V 394.18 h 111.25 v -27.731 h -76.95 v -39.73 z"
         style="fill:#ffffff;fill-opacity:1;fill-rule:evenodd;stroke:none"
         id="path40" /><path
         d="M 193.52,83.7891 V 69.3398 H 137.148 V 10.9414 H 119.449 V 145.859 h 83.211 v -14.57 H 137.148 V 83.7891 Z m 139.921,-2.5782 v -8.4804 c 0,-13.1211 -2.23,-24.5703 -6.64,-34.3321 C 322.34,28.5898 316.09,21.1289 307.969,15.9805 299.84,10.8203 290.352,8.23828 279.531,8.23828 c -10.582,0 -19.961,2.58202 -28.121,7.78122 -8.211,5.1914 -14.531,12.5703 -19.07,22.1797 -4.488,9.6094 -6.828,20.711 -6.949,33.3203 v 9.6914 c 0,12.8477 2.23,24.2191 6.757,34.0981 4.493,9.89 10.821,17.461 19.024,22.703 8.238,5.226 17.617,7.847 28.207,7.847 10.742,0 20.23,-2.578 28.43,-7.769 8.211,-5.199 14.531,-12.699 18.992,-22.539 4.41,-9.852 6.64,-21.2893 6.64,-34.3401 z m -17.66,-9.7617 v 9.9219 c 0,15.8594 -3.203,28.0389 -9.57,36.5589 -6.41,8.48 -15.352,12.73 -26.832,12.73 -11.219,0 -20,-4.25 -26.449,-12.73 -6.41,-8.52 -9.731,-20.2698 -9.918,-35.348 v -9.8515 c 0,-15.3516 3.238,-27.461 9.718,-36.25 6.532,-8.7813 15.43,-13.1992 26.801,-13.1992 11.449,0 20.309,4.1406 26.559,12.457 6.289,8.3203 9.5,20.2031 9.691,35.7109 z M 446.129,10.9414 416.988,66.6016 H 385.469 V 10.9414 H 367.66 V 145.859 h 44.449 c 15.121,0 26.762,-3.398 34.922,-10.238 8.168,-6.832 12.231,-16.75 12.231,-29.801 0,-8.2809 -2.274,-15.5114 -6.801,-21.6403 -4.531,-6.168 -10.82,-10.7383 -18.832,-13.8281 L 465.16,12.0703 V 10.9414 Z M 385.469,131.289 V 81.0898 h 27.191 c 8.789,0 15.82,2.2696 21.012,6.7618 5.199,4.4882 7.777,10.4687 7.777,17.9684 0,8.2 -2.469,14.45 -7.429,18.828 -4.961,4.372 -12.11,6.563 -21.442,6.641 z M 592.422,10.9414 H 545.859 V 145.859 h 43.911 c 14.57,0 25.5,-2.968 32.89,-8.949 7.34,-5.969 11.012,-14.801 11.012,-26.519 0,-6.211 -1.793,-11.6801 -5.352,-16.4808 -3.59,-4.7696 -8.441,-8.4414 -14.57,-11.1016 7.27,-2.0703 13.012,-6.0078 17.23,-11.7891 4.219,-5.75 6.321,-12.6601 6.321,-20.6679 0,-12.2618 -3.903,-21.9102 -11.711,-28.9024 -7.82,-7 -18.871,-10.5078 -33.168,-10.5078 z M 593.09,75 h -29.5 V 25.3906 h 29.219 c 8.242,0 14.73,2.1914 19.492,6.5977 4.769,4.3828 7.148,10.4336 7.148,18.0937 C 619.449,66.6797 610.66,75 593.09,75 Z m -29.5,56.289 V 89.1797 h 26.719 c 7.781,0 13.992,1.9101 18.601,5.7422 4.641,3.789 6.949,8.9881 6.949,15.5081 0,7.3 -2.148,12.621 -6.449,15.902 -4.289,3.316 -10.859,4.957 -19.64,4.957 z M 691.68,10.9414 h -17.6992 v 134.918 H 691.68 Z m 143.711,70.2695 v -8.4804 c 0,-13.1211 -2.192,-24.5703 -6.641,-34.3321 -4.41,-9.8086 -10.699,-17.2695 -18.828,-22.4179 -8.121,-5.1602 -17.582,-7.74222 -28.402,-7.74222 -10.579,0 -19.961,2.58202 -28.122,7.78122 -8.199,5.1914 -14.527,12.5703 -19.058,22.1797 -4.5,9.6094 -6.84,20.711 -6.961,33.3203 v 9.6914 c 0,12.8477 2.23,24.2191 6.723,34.0981 4.527,9.89 10.859,17.461 19.058,22.703 8.211,5.226 17.621,7.847 28.168,7.847 10.781,0 20.274,-2.578 28.473,-7.769 8.211,-5.199 14.539,-12.699 18.949,-22.539 4.449,-9.852 6.641,-21.2893 6.641,-34.3401 z M 817.77,71.4492 v 9.9219 c 0,15.8594 -3.2,28.0389 -9.571,36.5589 -6.398,8.48 -15.347,12.73 -26.871,12.73 -11.168,0 -19.957,-4.25 -26.406,-12.73 C 748.52,109.41 745.199,97.6602 745,82.582 v -9.8515 c 0,-15.3516 3.238,-27.461 9.73,-36.25 6.52,-8.7813 15.43,-13.1992 26.79,-13.1992 11.449,0 20.281,4.1406 26.57,12.457 6.25,8.3203 9.488,20.2031 9.68,35.7109 z m 69.769,74.4098 V 25.3906 h 63.633 V 10.9414 H 869.73 V 145.859 Z M 1075.62,81.2109 v -8.4804 c 0,-13.1211 -2.22,-24.5703 -6.64,-34.3321 -4.45,-9.8086 -10.74,-17.2695 -18.86,-22.4179 -8.13,-5.1602 -17.58,-7.74222 -28.4,-7.74222 -10.59,0 -19.96,2.58202 -28.13,7.78122 -8.199,5.1914 -14.531,12.5703 -19.059,22.1797 -4.492,9.6094 -6.832,20.711 -6.953,33.3203 v 9.6914 c 0,12.8477 2.223,24.2191 6.723,34.0981 4.527,9.89 10.859,17.461 19.058,22.703 8.241,5.226 17.621,7.847 28.201,7.847 10.74,0 20.24,-2.578 28.44,-7.769 8.2,-5.199 14.53,-12.699 18.98,-22.539 4.42,-9.852 6.64,-21.2893 6.64,-34.3401 z m -17.65,-9.7617 v 9.9219 c 0,15.8594 -3.2,28.0389 -9.57,36.5589 -6.41,8.48 -15.35,12.73 -26.84,12.73 -11.21,0 -20,-4.25 -26.439,-12.73 -6.41,-8.52 -9.73,-20.2698 -9.922,-35.348 v -9.8515 c 0,-15.3516 3.242,-27.461 9.723,-36.25 6.528,-8.7813 15.428,-13.1992 26.798,-13.1992 11.44,0 20.27,4.1406 26.56,12.457 6.25,8.3203 9.49,20.2031 9.69,35.7109 z m 151.09,4.25 V 27.3398 c -4.53,-6.3984 -10.9,-11.1679 -19.02,-14.3281 -8.13,-3.21092 -17.62,-4.77342 -28.44,-4.77342 -10.98,0 -20.7,2.54302 -29.18,7.70312 -8.47,5.1094 -15.04,12.418 -19.69,21.8281 -4.64,9.461 -7.03,20.3907 -7.14,32.8203 v 11.711 c 0,20.1602 4.72,35.8202 14.14,46.9182 9.45,11.09 22.73,16.64 39.84,16.64 13.98,0 25.27,-3.558 33.83,-10.738 8.51,-7.152 13.75,-17.351 15.66,-30.473 h -17.69 c -3.32,17.731 -13.91,26.641 -31.72,26.641 -11.88,0 -20.86,-4.141 -26.99,-12.457 -6.14,-8.32 -9.22,-20.3515 -9.26,-36.1015 V 71.8398 c 0,-15.039 3.44,-26.9609 10.31,-35.8203 6.88,-8.8711 16.21,-13.289 27.97,-13.289 6.64,0 12.46,0.7109 17.42,2.1484 5,1.4531 9.1,3.832 12.35,7.2305 V 61.332 h -31.1 v 14.3672 z m 54.81,-64.7578 h -17.7422 v 134.918 h 17.7422 z m 121.33,41.7891 h 17.85 c -1.68,-14.25 -6.92,-25.1914 -15.75,-32.9297 -8.82,-7.6914 -20.54,-11.56252 -35.19,-11.56252 -15.86,0 -28.56,5.67192 -38.13,17.03122 -9.57,11.3321 -14.37,26.5313 -14.37,45.5508 v 12.8516 c 0,12.457 2.23,23.3981 6.72,32.8481 4.45,9.46 10.78,16.718 18.94,21.761 8.17,5.078 17.62,7.578 28.4,7.578 14.3,0 25.74,-3.98 34.34,-11.949 8.59,-7.969 13.59,-18.988 15.04,-33.09 h -17.85 c -1.49,10.739 -4.85,18.481 -9.97,23.282 -5.15,4.808 -12.34,7.187 -21.56,7.187 -11.29,0 -20.15,-4.18 -26.6,-12.5 -6.41,-8.359 -9.61,-20.1992 -9.61,-35.5898 V 70.2695 c 0,-14.5312 3.05,-26.0898 9.1,-34.6797 6.1,-8.5585 14.61,-12.8593 25.55,-12.8593 9.84,0 17.38,2.2304 22.66,6.6797 5.23,4.4609 8.75,12.2304 10.43,23.3203 z m 135.58,-41.7891 -12.85,33.9805 h -56.25 l -12.66,-33.9805 h -18.24 l 51.29,134.9176 h 15.51 L 1538.91,10.9414 Z M 1479.8,123.949 1457.03,59.4883 h 45.67 z m 104.03,21.91 V 25.3906 h 63.63 V 10.9414 h -81.41 V 145.859 Z m 225.12,-93.1285 h 17.81 c -1.68,-14.25 -6.92,-25.1914 -15.74,-32.9297 -8.79,-7.6914 -20.55,-11.56252 -35.2,-11.56252 -15.86,0 -28.55,5.67192 -38.12,17.03122 -9.58,11.3321 -14.38,26.5313 -14.38,45.5508 v 12.8516 c 0,12.457 2.23,23.3981 6.72,32.8481 4.45,9.46 10.78,16.718 18.94,21.761 8.17,5.078 17.66,7.578 28.4,7.578 14.3,0 25.74,-3.98 34.34,-11.949 8.59,-7.969 13.63,-18.988 15.04,-33.09 h -17.81 c -1.53,10.739 -4.85,18.481 -10,23.282 -5.16,4.808 -12.35,7.187 -21.57,7.187 -11.29,0 -20.15,-4.18 -26.56,-12.5 -6.44,-8.359 -9.65,-20.1992 -9.65,-35.5898 V 70.2695 c 0,-14.5312 3.05,-26.0898 9.14,-34.6797 6.06,-8.5585 14.57,-12.8593 25.51,-12.8593 9.84,0 17.38,2.2304 22.66,6.6797 5.27,4.4609 8.75,12.2304 10.47,23.3203 z m 57.34,93.1285 34.88,-67.7379 35.04,67.7379 h 20.12 L 1910,61.25 V 10.9414 h -17.7 V 61.25 l -46.28,84.609 z M 2028.2,10.9414 h -46.56 V 145.859 h 43.91 c 14.57,0 25.54,-2.968 32.89,-8.949 7.34,-5.969 11.01,-14.801 11.01,-26.519 0,-6.211 -1.79,-11.6801 -5.35,-16.4808 -3.55,-4.7696 -8.44,-8.4414 -14.53,-11.1016 7.23,-2.0703 12.97,-6.0078 17.19,-11.7891 4.22,-5.75 6.33,-12.6601 6.33,-20.6679 0,-12.2618 -3.91,-21.9102 -11.72,-28.9024 -7.82,-7 -18.87,-10.5078 -33.17,-10.5078 z M 2028.91,75 h -29.53 V 25.3906 h 29.21 c 8.25,0 14.73,2.1914 19.5,6.5977 4.76,4.3828 7.14,10.4336 7.14,18.0937 0,16.5977 -8.78,24.918 -26.32,24.918 z m -29.53,56.289 V 89.1797 h 26.71 c 7.78,0 13.99,1.9101 18.6,5.7422 4.65,3.789 6.99,8.9881 6.99,15.5081 0,7.3 -2.19,12.621 -6.48,15.902 -4.3,3.316 -10.82,4.957 -19.65,4.957 z M 2181.72,89.1797 V 74.6914 h -58.2 V 25.3906 h 67.61 V 10.9414 h -85.31 V 145.859 h 84.38 v -14.57 h -66.68 V 89.1797 Z m 118.51,-78.2383 -29.14,55.6602 h -31.52 V 10.9414 h -17.81 V 145.859 h 44.45 c 15.12,0 26.76,-3.398 34.92,-10.238 8.17,-6.832 12.23,-16.75 12.23,-29.801 0,-8.2809 -2.27,-15.5114 -6.8,-21.6403 -4.53,-6.168 -10.78,-10.7383 -18.83,-13.8281 l 31.53,-58.2813 V 10.9414 Z M 2239.57,131.289 V 81.0898 h 27.19 c 8.83,0 15.82,2.2696 21.01,6.7618 5.2,4.4882 7.82,10.4687 7.82,17.9684 0,8.2 -2.5,14.45 -7.47,18.828 -4.96,4.372 -12.1,6.563 -21.44,6.641 z m 209.65,14.57 V 10.9414 h -17.81 L 2363.79,114.879 V 10.9414 h -17.77 V 145.859 h 17.77 L 2431.6,41.4492 V 145.859 Z M 2562.27,89.1797 V 74.6914 h -58.21 V 25.3906 h 67.58 V 10.9414 h -85.31 V 145.859 h 84.41 v -14.57 h -66.68 V 89.1797 Z m 135.58,56.6793 v -14.57 h -43.12 V 10.9414 h -17.62 V 131.289 h -43.09 v 14.57 z m 44.96,-134.9176 h -17.6875 v 134.918 h 17.6875 z m 121.37,41.7891 h 17.85 c -1.68,-14.25 -6.95,-25.1914 -15.74,-32.9297 -8.83,-7.6914 -20.55,-11.56252 -35.2,-11.56252 -15.86,0 -28.59,5.67192 -38.16,17.03122 -9.57,11.3321 -14.34,26.5313 -14.34,45.5508 v 12.8516 c 0,12.457 2.23,23.3981 6.68,32.8481 4.5,9.46 10.78,16.718 18.99,21.761 8.16,5.078 17.62,7.578 28.4,7.578 14.25,0 25.7,-3.98 34.29,-11.949 8.64,-7.969 13.64,-18.988 15.08,-33.09 h -17.85 c -1.52,10.739 -4.84,18.481 -10,23.282 -5.12,4.808 -12.3,7.187 -21.52,7.187 -11.33,0 -20.2,-4.18 -26.61,-12.5 -6.4,-8.359 -9.64,-20.1992 -9.64,-35.5898 V 70.2695 c 0,-14.5312 3.04,-26.0898 9.14,-34.6797 6.09,-8.5585 14.61,-12.8593 25.54,-12.8593 9.85,0 17.39,2.2304 22.62,6.6797 5.27,4.4609 8.75,12.2304 10.47,23.3203 z m 88.12,17.0703 c -15.15,4.3398 -26.21,9.6875 -33.12,16.0586 -6.91,6.332 -10.39,14.1796 -10.39,23.4806 0,10.539 4.22,19.289 12.69,26.211 8.44,6.871 19.42,10.308 32.93,10.308 9.26,0 17.5,-1.757 24.73,-5.347 7.23,-3.563 12.81,-8.481 16.8,-14.774 3.94,-6.25 5.94,-13.117 5.94,-20.539 h -17.82 c 0,8.121 -2.58,14.492 -7.73,19.141 -5.2,4.64 -12.5,6.949 -21.92,6.949 -8.71,0 -15.5,-1.91 -20.39,-5.738 -4.88,-3.832 -7.34,-9.141 -7.34,-15.942 0,-5.429 2.3,-10.0777 6.95,-13.8277 4.65,-3.75 12.54,-7.1915 23.71,-10.3125 11.18,-3.129 19.89,-6.5586 26.21,-10.3477 6.29,-3.7891 10.98,-8.1719 14.03,-13.2109 3.01,-5.0313 4.53,-10.9688 4.53,-17.7696 0,-10.8593 -4.22,-19.5703 -12.7,-26.0898 -8.47,-6.5703 -19.84,-9.81252 -34.06,-9.81252 -9.22,0 -17.81,1.76172 -25.82,5.31252 -8.01,3.5195 -14.18,8.3594 -18.48,14.539 -4.33,6.129 -6.52,13.1211 -6.52,20.9297 h 17.81 c 0,-8.1211 3.01,-14.5312 8.99,-19.25 6.01,-4.6875 14.02,-7.039 24.02,-7.039 9.38,0 16.53,1.9179 21.53,5.7109 4.96,3.7891 7.46,8.9375 7.46,15.5078 0,6.5625 -2.31,11.6406 -6.92,15.2305 -4.61,3.5508 -12.97,7.1094 -25.12,10.6211 z"
         style="fill:#ffffff;fill-opacity:1;fill-rule:evenodd;stroke:none"
         id="path42" /></g></g></svg>
